<svg width="50" height="50" viewBox="0 0 50 50" fill="none" xmlns="http://www.w3.org/2000/svg">
<path d="M49.7193 26.7942C49.5159 27.4238 49.2794 28.0392 49.0121 28.6451C48.1298 30.3328 46.661 31.7459 44.7474 32.553C40.504 34.3448 35.6645 32.4915 33.8763 28.4155C33.6374 27.8049 33.4529 27.1634 33.3323 26.4936C33.285 26.2403 33.2495 25.987 33.2235 25.7361C33.214 25.5775 33.2069 25.4189 33.2069 25.2604C33.1998 25.2793 33.1927 25.2982 33.188 25.3172C32.9941 22.4484 34.6498 19.0234 36.4664 16.9097C35.5297 17.1132 28.947 17.5085 28.947 17.5085C28.947 17.5085 22.2767 25.8332 25.2145 36.1532C26.0447 39.0669 27.9701 42.8541 29.7394 44.0944C29.8907 44.0991 30.0445 44.1039 30.1959 44.1039H30.2526C30.3236 44.1039 30.3969 44.1039 30.4679 44.1039H30.5317C30.6098 44.1039 30.6855 44.1039 30.7635 44.0991H30.8014C30.9835 44.0944 31.1657 44.0896 31.3478 44.0802C31.3691 44.0802 31.388 44.0802 31.4093 44.0778C31.4802 44.0731 31.5512 44.0707 31.6222 44.066C31.6458 44.066 31.6671 44.0636 31.6908 44.0612C31.7641 44.0565 31.8398 44.0494 31.9155 44.0447C31.9297 44.0447 31.9462 44.0447 31.9604 44.0423C32.1425 44.0281 32.3247 44.0092 32.5068 43.9902C32.5281 43.9879 32.5494 43.9855 32.573 43.9808C32.6416 43.9737 32.7102 43.9666 32.7788 43.9571C32.8025 43.9547 32.8285 43.95 32.8521 43.9476C32.9231 43.9382 32.9964 43.9287 33.0674 43.9192C33.0863 43.9192 33.1052 43.9145 33.1218 43.9121C33.214 43.8979 33.3063 43.8861 33.3962 43.8695C33.4837 43.8553 33.5736 43.8411 33.6611 43.8269C33.6847 43.8222 33.7084 43.8174 33.732 43.8127C33.7983 43.8032 33.8645 43.789 33.9307 43.7772C33.9567 43.7725 33.9851 43.7677 34.0112 43.7606C34.0797 43.7464 34.1483 43.7346 34.2146 43.7204C34.2359 43.7157 34.2595 43.7109 34.2808 43.7062C34.3707 43.6873 34.4606 43.6683 34.5528 43.6494C34.5552 43.6494 34.5575 43.6494 34.5599 43.6494C34.6451 43.6305 34.7326 43.6092 34.8201 43.5902C34.8461 43.5855 34.8721 43.5784 34.8958 43.5713C34.9597 43.5571 35.0235 43.5405 35.0874 43.5239C35.1158 43.5168 35.1441 43.5097 35.1725 43.5026C35.2388 43.4861 35.3026 43.4695 35.3689 43.4529C35.3925 43.4458 35.4185 43.4387 35.4422 43.434C35.5321 43.4103 35.6196 43.3867 35.7095 43.3606C35.7118 43.3606 35.7166 43.3606 35.7189 43.3583C35.8041 43.3346 35.8892 43.3085 35.9744 43.2849C36.0004 43.2778 36.0264 43.2683 36.0548 43.2612C36.1163 43.2423 36.1802 43.2233 36.2417 43.2044C36.2724 43.1949 36.3008 43.1855 36.3315 43.176C36.393 43.1571 36.4569 43.1358 36.5184 43.1145C36.5444 43.105 36.5704 43.0979 36.5965 43.0884C36.684 43.0576 36.7715 43.0292 36.859 42.9985C36.8614 42.9985 36.8637 42.9985 36.8661 42.9961C36.9513 42.9653 37.0364 42.9346 37.1192 42.9062C37.1476 42.8967 37.1736 42.8849 37.202 42.8754C37.2635 42.8517 37.3226 42.8281 37.3841 42.8067C37.4149 42.7949 37.4456 42.7831 37.474 42.7712C37.5355 42.7476 37.5946 42.7239 37.6561 42.7002C37.6845 42.6908 37.7105 42.6789 37.7366 42.6671C37.8241 42.6316 37.9092 42.5961 37.9967 42.5606C38.1126 42.5109 38.2285 42.4612 38.3421 42.4091C38.3799 42.3925 38.4154 42.376 38.4533 42.3594C38.5313 42.3239 38.6094 42.2884 38.6851 42.2529C38.7276 42.2339 38.7702 42.2126 38.8128 42.1937C38.8837 42.1606 38.9571 42.1251 39.028 42.0896C39.0706 42.0683 39.1132 42.0469 39.1558 42.0256C39.2267 41.9901 39.2977 41.9523 39.3686 41.9168C39.4088 41.8955 39.4491 41.8765 39.4893 41.8552C39.5697 41.8126 39.6477 41.77 39.7282 41.7274C39.7589 41.7108 39.7873 41.6943 39.8181 41.6801C39.9269 41.6209 40.0357 41.5594 40.1421 41.5002C40.1587 41.4907 40.1752 41.4812 40.1918 41.4718C40.2817 41.4197 40.3715 41.3676 40.4591 41.3132C40.4945 41.2919 40.5277 41.2706 40.5631 41.2493C40.6341 41.2067 40.7051 41.1641 40.7736 41.1191C40.8115 41.0954 40.8493 41.0718 40.8872 41.0481C40.9534 41.0055 41.0196 40.9629 41.0859 40.9203C41.1237 40.8966 41.1616 40.8729 41.197 40.8469C41.2656 40.8019 41.3342 40.7546 41.4028 40.7096C41.4359 40.6883 41.4691 40.6646 41.4998 40.6433C41.5826 40.5865 41.6677 40.5274 41.7482 40.4682C41.7647 40.4587 41.7813 40.4469 41.7955 40.435C41.8948 40.3617 41.9942 40.2907 42.0935 40.2173C42.1124 40.2031 42.1313 40.1889 42.1503 40.1723C42.2283 40.1131 42.304 40.054 42.3797 39.9971C42.4105 39.9735 42.4412 39.9498 42.4696 39.9261C42.5358 39.8741 42.5997 39.8244 42.6659 39.7723C42.699 39.7462 42.7298 39.7202 42.7605 39.6942C42.8244 39.6421 42.8883 39.59 42.9498 39.538C42.9805 39.5119 43.0113 39.4859 43.0396 39.4622C43.1082 39.4054 43.1745 39.3462 43.2407 39.2871C43.2643 39.2681 43.288 39.2468 43.3117 39.2255C43.4938 39.0646 43.6712 38.9012 43.8486 38.7355C43.8675 38.719 43.8841 38.7024 43.903 38.6835C43.9716 38.6172 44.0402 38.5509 44.1064 38.487C44.1301 38.461 44.1561 38.4373 44.1797 38.4113C44.2412 38.3521 44.3004 38.2906 44.3595 38.2314C44.3855 38.2053 44.4115 38.1793 44.4376 38.1509C44.4967 38.0894 44.5558 38.0278 44.615 37.9639C44.6386 37.9402 44.6623 37.9142 44.6859 37.8905C44.7521 37.8172 44.8184 37.7462 44.8846 37.6728C44.8988 37.6586 44.913 37.6444 44.9272 37.6278C45.088 37.4479 45.2465 37.268 45.4002 37.081C45.4168 37.0621 45.4334 37.0408 45.4499 37.0219C45.509 36.9509 45.5682 36.8775 45.625 36.8065C45.6462 36.7804 45.6675 36.7544 45.6864 36.7284C45.7409 36.6621 45.7929 36.5934 45.8473 36.5248C45.8686 36.4988 45.8899 36.4704 45.9112 36.4443C45.9656 36.3733 46.0176 36.3023 46.072 36.2313C46.0886 36.2076 46.1075 36.184 46.124 36.1603C46.1879 36.0727 46.2518 35.9851 46.3156 35.8952C46.3204 35.8881 46.3251 35.881 46.3298 35.8739C46.4008 35.7745 46.4694 35.6727 46.538 35.5709C46.5403 35.5662 46.5427 35.5614 46.5474 35.5567C46.6089 35.4644 46.6704 35.3721 46.7319 35.2774C46.7485 35.2537 46.7627 35.2301 46.7792 35.204C46.8265 35.1306 46.8738 35.0549 46.9212 34.9815C46.9401 34.9531 46.9566 34.9224 46.9756 34.8939C47.0205 34.8229 47.0631 34.7496 47.108 34.6762C47.1175 34.6596 47.1293 34.643 47.1388 34.6241C48.5651 32.2287 49.4521 29.5517 49.7099 26.7918L49.7193 26.7942Z" fill="#3D8FCD"/>
<path style="mix-blend-mode:multiply" opacity="0.2" d="M49.7193 26.7942C49.5159 27.4238 49.2794 28.0392 49.0121 28.6451C48.1298 30.3328 46.661 31.7459 44.7474 32.553C40.504 34.3448 35.6645 32.4915 33.8763 28.4155C33.6374 27.8049 33.4529 27.1634 33.3323 26.4936C33.285 26.2403 33.2495 25.987 33.2235 25.7361C33.214 25.5775 33.2069 25.4189 33.2069 25.2604C33.1998 25.2793 33.1927 25.2982 33.188 25.3172C32.9941 22.4484 34.6498 19.0234 36.4664 16.9097C35.5297 17.1132 28.947 17.5085 28.947 17.5085C28.947 17.5085 22.2767 25.8332 25.2145 36.1532C26.0447 39.0669 27.9701 42.8541 29.7394 44.0944C29.8907 44.0991 30.0445 44.1039 30.1959 44.1039H30.2526C30.3236 44.1039 30.3969 44.1039 30.4679 44.1039H30.5317C30.6098 44.1039 30.6855 44.1039 30.7635 44.0991H30.8014C30.9835 44.0944 31.1657 44.0896 31.3478 44.0802C31.3691 44.0802 31.388 44.0802 31.4093 44.0778C31.4802 44.0731 31.5512 44.0707 31.6222 44.066C31.6458 44.066 31.6671 44.0636 31.6908 44.0612C31.7641 44.0565 31.8398 44.0494 31.9155 44.0447C31.9297 44.0447 31.9462 44.0447 31.9604 44.0423C32.1425 44.0281 32.3247 44.0092 32.5068 43.9902C32.5281 43.9879 32.5494 43.9855 32.573 43.9808C32.6416 43.9737 32.7102 43.9666 32.7788 43.9571C32.8025 43.9547 32.8285 43.95 32.8521 43.9476C32.9231 43.9382 32.9964 43.9287 33.0674 43.9192C33.0863 43.9192 33.1052 43.9145 33.1218 43.9121C33.214 43.8979 33.3063 43.8861 33.3962 43.8695C33.4837 43.8553 33.5736 43.8411 33.6611 43.8269C33.6847 43.8222 33.7084 43.8174 33.732 43.8127C33.7983 43.8032 33.8645 43.789 33.9307 43.7772C33.9567 43.7725 33.9851 43.7677 34.0112 43.7606C34.0797 43.7464 34.1483 43.7346 34.2146 43.7204C34.2359 43.7157 34.2595 43.7109 34.2808 43.7062C34.3707 43.6873 34.4606 43.6683 34.5528 43.6494C34.5552 43.6494 34.5575 43.6494 34.5599 43.6494C34.6451 43.6305 34.7326 43.6092 34.8201 43.5902C34.8461 43.5855 34.8721 43.5784 34.8958 43.5713C34.9597 43.5571 35.0235 43.5405 35.0874 43.5239C35.1158 43.5168 35.1441 43.5097 35.1725 43.5026C35.2388 43.4861 35.3026 43.4695 35.3689 43.4529C35.3925 43.4458 35.4185 43.4387 35.4422 43.434C35.5321 43.4103 35.6196 43.3867 35.7095 43.3606C35.7118 43.3606 35.7166 43.3606 35.7189 43.3583C35.8041 43.3346 35.8892 43.3085 35.9744 43.2849C36.0004 43.2778 36.0264 43.2683 36.0548 43.2612C36.1163 43.2423 36.1802 43.2233 36.2417 43.2044C36.2724 43.1949 36.3008 43.1855 36.3315 43.176C36.393 43.1571 36.4569 43.1358 36.5184 43.1145C36.5444 43.105 36.5704 43.0979 36.5965 43.0884C36.684 43.0576 36.7715 43.0292 36.859 42.9985C36.8614 42.9985 36.8637 42.9985 36.8661 42.9961C36.9513 42.9653 37.0364 42.9346 37.1192 42.9062C37.1476 42.8967 37.1736 42.8849 37.202 42.8754C37.2635 42.8517 37.3226 42.8281 37.3841 42.8067C37.4149 42.7949 37.4456 42.7831 37.474 42.7712C37.5355 42.7476 37.5946 42.7239 37.6561 42.7002C37.6845 42.6908 37.7105 42.6789 37.7366 42.6671C37.8241 42.6316 37.9092 42.5961 37.9967 42.5606C38.1126 42.5109 38.2285 42.4612 38.3421 42.4091C38.3799 42.3925 38.4154 42.376 38.4533 42.3594C38.5313 42.3239 38.6094 42.2884 38.6851 42.2529C38.7276 42.2339 38.7702 42.2126 38.8128 42.1937C38.8837 42.1606 38.9571 42.1251 39.028 42.0896C39.0706 42.0683 39.1132 42.0469 39.1558 42.0256C39.2267 41.9901 39.2977 41.9523 39.3686 41.9168C39.4088 41.8955 39.4491 41.8765 39.4893 41.8552C39.5697 41.8126 39.6477 41.77 39.7282 41.7274C39.7589 41.7108 39.7873 41.6943 39.8181 41.6801C39.9269 41.6209 40.0357 41.5594 40.1421 41.5002C40.1587 41.4907 40.1752 41.4812 40.1918 41.4718C40.2817 41.4197 40.3715 41.3676 40.4591 41.3132C40.4945 41.2919 40.5277 41.2706 40.5631 41.2493C40.6341 41.2067 40.7051 41.1641 40.7736 41.1191C40.8115 41.0954 40.8493 41.0718 40.8872 41.0481C40.9534 41.0055 41.0196 40.9629 41.0859 40.9203C41.1237 40.8966 41.1616 40.8729 41.197 40.8469C41.2656 40.8019 41.3342 40.7546 41.4028 40.7096C41.4359 40.6883 41.4691 40.6646 41.4998 40.6433C41.5826 40.5865 41.6677 40.5274 41.7482 40.4682C41.7647 40.4587 41.7813 40.4469 41.7955 40.435C41.8948 40.3617 41.9942 40.2907 42.0935 40.2173C42.1124 40.2031 42.1313 40.1889 42.1503 40.1723C42.2283 40.1131 42.304 40.054 42.3797 39.9971C42.4105 39.9735 42.4412 39.9498 42.4696 39.9261C42.5358 39.8741 42.5997 39.8244 42.6659 39.7723C42.699 39.7462 42.7298 39.7202 42.7605 39.6942C42.8244 39.6421 42.8883 39.59 42.9498 39.538C42.9805 39.5119 43.0113 39.4859 43.0396 39.4622C43.1082 39.4054 43.1745 39.3462 43.2407 39.2871C43.2643 39.2681 43.288 39.2468 43.3117 39.2255C43.4938 39.0646 43.6712 38.9012 43.8486 38.7355C43.8675 38.719 43.8841 38.7024 43.903 38.6835C43.9716 38.6172 44.0402 38.5509 44.1064 38.487C44.1301 38.461 44.1561 38.4373 44.1797 38.4113C44.2412 38.3521 44.3004 38.2906 44.3595 38.2314C44.3855 38.2053 44.4115 38.1793 44.4376 38.1509C44.4967 38.0894 44.5558 38.0278 44.615 37.9639C44.6386 37.9402 44.6623 37.9142 44.6859 37.8905C44.7521 37.8172 44.8184 37.7462 44.8846 37.6728C44.8988 37.6586 44.913 37.6444 44.9272 37.6278C45.088 37.4479 45.2465 37.268 45.4002 37.081C45.4168 37.0621 45.4334 37.0408 45.4499 37.0219C45.509 36.9509 45.5682 36.8775 45.625 36.8065C45.6462 36.7804 45.6675 36.7544 45.6864 36.7284C45.7409 36.6621 45.7929 36.5934 45.8473 36.5248C45.8686 36.4988 45.8899 36.4704 45.9112 36.4443C45.9656 36.3733 46.0176 36.3023 46.072 36.2313C46.0886 36.2076 46.1075 36.184 46.124 36.1603C46.1879 36.0727 46.2518 35.9851 46.3156 35.8952C46.3204 35.8881 46.3251 35.881 46.3298 35.8739C46.4008 35.7745 46.4694 35.6727 46.538 35.5709C46.5403 35.5662 46.5427 35.5614 46.5474 35.5567C46.6089 35.4644 46.6704 35.3721 46.7319 35.2774C46.7485 35.2537 46.7627 35.2301 46.7792 35.204C46.8265 35.1306 46.8738 35.0549 46.9212 34.9815C46.9401 34.9531 46.9566 34.9224 46.9756 34.8939C47.0205 34.8229 47.0631 34.7496 47.108 34.6762C47.1175 34.6596 47.1293 34.643 47.1388 34.6241C48.5651 32.2287 49.4521 29.5517 49.7099 26.7918L49.7193 26.7942Z" fill="url(#paint0_linear_353_13263)"/>
<path opacity="0.4" d="M49.0145 28.6451C48.1323 30.3328 46.6634 31.7459 44.7498 32.553C40.5064 34.3448 35.6669 32.4914 33.8788 28.4155C33.6399 27.8048 33.4554 27.1634 33.3347 26.4935C33.2874 26.2403 33.2519 25.987 33.2259 25.7361C33.2165 25.5775 33.2094 25.4189 33.2094 25.2603C33.2023 25.2793 33.1952 25.2982 33.1904 25.3171C33.0083 22.6306 34.4488 19.4565 36.1258 17.3262C33.0485 19.0731 30.9741 22.3797 30.9741 26.1716C30.9741 31.7861 35.5227 36.3354 41.1309 36.3354C43.5128 36.3354 45.7031 35.5164 47.4345 34.1412C48.6976 31.8713 49.4852 29.367 49.7265 26.7918C49.5231 27.4214 49.2866 28.0368 49.0193 28.6427L49.0145 28.6451Z" fill="url(#paint1_linear_353_13263)"/>
<path d="M46.9991 36.5272C46.8927 36.655 46.8241 36.7023 46.7792 36.7378C44.7994 38.016 42.4411 38.7592 39.9102 38.7592C33.4576 38.7592 28.1309 33.9424 27.3219 27.7055C27.2533 27.1658 27.2155 26.6143 27.2155 26.0557C27.2155 22.6993 28.5164 19.6459 30.6429 17.376C29.0084 17.5038 27.5088 17.6624 26.9435 17.7831C24.2919 18.4151 21.9431 19.7998 19.935 21.6886C16.3255 25.0828 13.8159 30.1056 12.6332 35.2987C11.7249 39.2871 12.5504 45.1027 14.0547 47.5762C14.2345 47.6638 14.419 47.749 14.6011 47.8319C14.6248 47.8413 14.6461 47.8508 14.6697 47.8626C14.7573 47.9005 14.8424 47.9384 14.9299 47.9762C14.9559 47.9881 14.982 47.9975 15.0056 48.0094C15.1002 48.0496 15.1925 48.0875 15.2871 48.1277C15.3036 48.1348 15.3178 48.1419 15.332 48.1467C15.5544 48.239 15.7767 48.3265 16.0038 48.4118C16.0274 48.4212 16.0535 48.4307 16.0771 48.4402C16.1646 48.4733 16.2521 48.5041 16.3397 48.5372C16.368 48.5467 16.3964 48.5585 16.4248 48.568C16.5171 48.6011 16.6093 48.6343 16.7039 48.665C16.7228 48.6721 16.7418 48.6792 16.7607 48.684C16.9878 48.7621 17.2148 48.8354 17.4466 48.9065C17.475 48.9136 17.5034 48.923 17.5294 48.9325C17.6169 48.9585 17.7021 48.9846 17.7896 49.0106C17.8204 49.0201 17.8535 49.0295 17.8842 49.039C17.9741 49.065 18.0664 49.0911 18.1586 49.1148C18.1823 49.1219 18.2059 49.129 18.2296 49.1337C18.3478 49.1668 18.4637 49.1976 18.582 49.2284C18.582 49.2284 18.582 49.2284 18.5844 49.2284C18.6979 49.2591 18.8114 49.2852 18.925 49.3136C18.9557 49.3207 18.9865 49.3278 19.0172 49.3349C19.1024 49.3562 19.1899 49.3751 19.2774 49.3941C19.3129 49.4012 19.3484 49.4106 19.3815 49.4177C19.4714 49.4367 19.5589 49.458 19.6488 49.4745C19.6772 49.4793 19.7055 49.4864 19.7339 49.4935C19.8522 49.5171 19.9705 49.5432 20.0911 49.5645C20.0935 49.5645 20.0958 49.5645 20.1005 49.5645C20.2141 49.5858 20.33 49.6071 20.4435 49.626C20.4766 49.6308 20.5121 49.6379 20.5452 49.6426C20.6304 49.6568 20.7155 49.671 20.8007 49.6852C20.8385 49.6923 20.8764 49.697 20.9166 49.7041C21.0041 49.7183 21.0916 49.7325 21.1791 49.7444C21.2123 49.7491 21.2454 49.7538 21.2761 49.7586C21.3968 49.7751 21.5174 49.7917 21.6357 49.8083C21.6404 49.8083 21.6427 49.8083 21.6475 49.8083C21.761 49.8225 21.8769 49.8367 21.9928 49.8485C22.0283 49.8533 22.0661 49.858 22.1016 49.8603C22.1868 49.8698 22.2719 49.8793 22.3571 49.8864C22.3973 49.8911 22.4375 49.8959 22.4801 49.8982C22.5652 49.9077 22.6504 49.9124 22.7379 49.9195C22.7734 49.9219 22.8112 49.9243 22.8467 49.929C22.9673 49.9385 23.0903 49.9479 23.211 49.955H23.2228C23.3411 49.9621 23.457 49.9692 23.5752 49.974C23.6131 49.974 23.6509 49.9763 23.6888 49.9787C23.7739 49.9811 23.8591 49.9858 23.9442 49.9882C23.9868 49.9882 24.0294 49.9905 24.0719 49.9905C24.1571 49.9953 24.2423 49.9953 24.3274 49.9976C24.3652 49.9976 24.4031 49.9976 24.4433 49.9976C24.5663 49.9976 24.6893 50 24.8123 50C24.9779 50 25.1434 50 25.3067 49.9953C25.3587 49.9953 25.4131 49.9953 25.4651 49.9905C25.5763 49.9882 25.6898 49.9858 25.801 49.9811C25.8625 49.9811 25.924 49.9763 25.9855 49.9716C26.0896 49.9669 26.1937 49.9621 26.2977 49.955C26.3592 49.9527 26.4231 49.9479 26.4846 49.9432C26.5887 49.9361 26.6927 49.929 26.7968 49.9195C26.8559 49.9148 26.9151 49.9101 26.9742 49.9053C27.0925 49.8959 27.2084 49.884 27.3266 49.8722C27.3716 49.8675 27.4142 49.8627 27.4591 49.8603C27.62 49.8438 27.7832 49.8248 27.9416 49.8059C27.9677 49.8012 27.9913 49.7988 28.0173 49.7964C28.1522 49.7775 28.287 49.7609 28.4194 49.7396C28.4715 49.7325 28.5235 49.7254 28.5779 49.716C28.6844 49.6994 28.7932 49.6828 28.8996 49.6663C28.9587 49.6568 29.0155 49.6473 29.0746 49.6355C29.1763 49.6166 29.2781 49.5976 29.3821 49.581C29.4389 49.5692 29.498 49.5597 29.5548 49.5479C29.6612 49.5266 29.7677 49.5053 29.8741 49.484C29.9238 49.4745 29.9758 49.4627 30.0255 49.4532C30.1556 49.4248 30.2857 49.3964 30.4158 49.368C30.4394 49.3633 30.4655 49.3562 30.4915 49.3514C30.6476 49.3159 30.8037 49.2781 30.9598 49.2378C30.9906 49.2284 31.0213 49.2213 31.0521 49.2142C31.1751 49.1834 31.298 49.1503 31.421 49.1171C31.4707 49.1029 31.518 49.0887 31.5677 49.0769C31.6718 49.0485 31.7782 49.0177 31.8823 48.9869C31.9343 48.9727 31.9864 48.9562 32.0384 48.9396C32.1425 48.9088 32.2442 48.8757 32.3459 48.8449C32.3956 48.8307 32.4452 48.8141 32.4949 48.7976C32.6061 48.7621 32.7173 48.7242 32.8261 48.6887C32.8639 48.6745 32.9041 48.6627 32.942 48.6485C33.2447 48.5443 33.5428 48.4354 33.8384 48.3194C33.8692 48.3076 33.8999 48.2958 33.9307 48.2839C34.0466 48.239 34.1625 48.1916 34.276 48.1443C34.3186 48.1254 34.3612 48.1088 34.4061 48.0899C34.5102 48.0472 34.6119 48.0046 34.716 47.9597C34.7609 47.9384 34.8058 47.9194 34.8508 47.9005C34.9549 47.8555 35.0566 47.8082 35.1606 47.7608C35.2009 47.7419 35.2411 47.7253 35.2813 47.7064C35.3995 47.652 35.5154 47.5975 35.6313 47.5407C35.655 47.5289 35.681 47.517 35.7047 47.5052C35.9909 47.3656 36.2747 47.2212 36.5538 47.0721C36.5846 47.0555 36.6153 47.0389 36.6437 47.0223C36.7502 46.9655 36.859 46.904 36.9654 46.8448C37.0056 46.8235 37.0435 46.8022 37.0813 46.7785C37.1806 46.7217 37.28 46.6649 37.377 46.6081C37.4148 46.5845 37.455 46.5632 37.4952 46.5395C37.5969 46.4803 37.6963 46.4188 37.798 46.3572C37.8311 46.3383 37.8642 46.317 37.8973 46.2981C38.0203 46.2223 38.141 46.1466 38.2616 46.0685C38.2711 46.0614 38.2805 46.0566 38.29 46.0495C38.4272 45.9619 38.562 45.872 38.6968 45.7821C38.7039 45.7797 38.7086 45.7749 38.7157 45.7702C38.8387 45.6874 38.9594 45.6045 39.08 45.5217C39.1108 45.5004 39.1415 45.4767 39.1746 45.4554C39.2716 45.3868 39.3662 45.3181 39.4608 45.2495C39.4987 45.2234 39.5342 45.195 39.572 45.169C39.6642 45.1027 39.7541 45.0365 39.844 44.9678C39.8653 44.9512 39.8866 44.937 39.9079 44.9205C42.8504 42.686 45.2843 39.8149 47.0015 36.5106L46.9991 36.5272Z" fill="#6BB9E7"/>
<path style="mix-blend-mode:multiply" opacity="0.3" d="M46.9991 36.5272C46.8927 36.655 46.8147 36.7118 46.7792 36.7378C44.7994 38.016 42.4411 38.7592 39.9102 38.7592C33.4576 38.7592 28.1309 33.9424 27.3219 27.7055C27.2533 27.1658 27.2155 26.6143 27.2155 26.0557C27.2155 22.6993 28.5164 19.6459 30.6429 17.376C29.0084 17.5038 27.5088 17.6624 26.9435 17.7831C24.2919 18.4151 21.9431 19.7998 19.935 21.6886C16.3255 25.0828 13.8159 30.1056 12.6332 35.2987C11.7249 39.2871 12.5504 45.1027 14.0547 47.5762C14.2345 47.6638 14.419 47.749 14.6011 47.8319C14.6248 47.8413 14.6461 47.8508 14.6697 47.8626C14.7573 47.9005 14.8424 47.9384 14.9299 47.9762C14.9559 47.9881 14.982 47.9975 15.0056 48.0094C15.1002 48.0496 15.1925 48.0875 15.2871 48.1277C15.3036 48.1348 15.3178 48.1419 15.332 48.1467C15.5544 48.239 15.7767 48.3265 16.0038 48.4118C16.0274 48.4212 16.0535 48.4307 16.0771 48.4402C16.1646 48.4733 16.2521 48.5041 16.3397 48.5372C16.368 48.5467 16.3964 48.5585 16.4248 48.568C16.5171 48.6011 16.6093 48.6343 16.7039 48.665C16.7228 48.6721 16.7418 48.6792 16.7607 48.684C16.9878 48.7621 17.2148 48.8354 17.4466 48.9065C17.475 48.9136 17.5034 48.923 17.5294 48.9325C17.6169 48.9585 17.7021 48.9846 17.7896 49.0106C17.8204 49.0201 17.8535 49.0295 17.8842 49.039C17.9741 49.065 18.0664 49.0911 18.1586 49.1148C18.1823 49.1219 18.2059 49.129 18.2296 49.1337C18.3478 49.1668 18.4637 49.1976 18.582 49.2284C18.582 49.2284 18.582 49.2284 18.5844 49.2284C18.6979 49.2591 18.8114 49.2852 18.925 49.3136C18.9557 49.3207 18.9865 49.3278 19.0172 49.3349C19.1024 49.3562 19.1899 49.3751 19.2774 49.3941C19.3129 49.4012 19.3484 49.4106 19.3815 49.4177C19.4714 49.4367 19.5589 49.458 19.6488 49.4745C19.6772 49.4793 19.7055 49.4864 19.7339 49.4935C19.8522 49.5171 19.9705 49.5432 20.0911 49.5645C20.0935 49.5645 20.0958 49.5645 20.1005 49.5645C20.2141 49.5858 20.33 49.6071 20.4435 49.626C20.4766 49.6308 20.5121 49.6379 20.5452 49.6426C20.6304 49.6568 20.7155 49.671 20.8007 49.6852C20.8385 49.6923 20.8764 49.697 20.9166 49.7041C21.0041 49.7183 21.0916 49.7325 21.1791 49.7444C21.2123 49.7491 21.2454 49.7538 21.2761 49.7586C21.3968 49.7751 21.5174 49.7917 21.6357 49.8083C21.6404 49.8083 21.6427 49.8083 21.6475 49.8083C21.761 49.8225 21.8769 49.8367 21.9928 49.8485C22.0283 49.8533 22.0661 49.858 22.1016 49.8603C22.1868 49.8698 22.2719 49.8793 22.3571 49.8864C22.3973 49.8911 22.4375 49.8959 22.4801 49.8982C22.5652 49.9077 22.6504 49.9124 22.7379 49.9195C22.7734 49.9219 22.8112 49.9243 22.8467 49.929C22.9673 49.9385 23.0903 49.9479 23.211 49.955H23.2228C23.3411 49.9621 23.457 49.9692 23.5752 49.974C23.6131 49.974 23.6509 49.9763 23.6888 49.9787C23.7739 49.9811 23.8591 49.9858 23.9442 49.9882C23.9868 49.9882 24.0294 49.9905 24.0719 49.9905C24.1571 49.9953 24.2423 49.9953 24.3274 49.9976C24.3652 49.9976 24.4031 49.9976 24.4433 49.9976C24.5663 49.9976 24.6893 50 24.8123 50C24.9779 50 25.1434 50 25.3067 49.9953C25.3587 49.9953 25.4131 49.9953 25.4651 49.9905C25.5763 49.9882 25.6898 49.9858 25.801 49.9811C25.8625 49.9811 25.924 49.9763 25.9855 49.9716C26.0896 49.9669 26.1937 49.9621 26.2977 49.955C26.3592 49.9527 26.4231 49.9479 26.4846 49.9432C26.5887 49.9361 26.6927 49.929 26.7968 49.9195C26.8559 49.9148 26.9151 49.9101 26.9742 49.9053C27.0925 49.8959 27.2084 49.884 27.3266 49.8722C27.3716 49.8675 27.4142 49.8627 27.4591 49.8603C27.62 49.8438 27.7832 49.8248 27.9416 49.8059C27.9677 49.8012 27.9913 49.7988 28.0173 49.7964C28.1522 49.7775 28.287 49.7609 28.4194 49.7396C28.4715 49.7325 28.5235 49.7254 28.5779 49.716C28.6844 49.6994 28.7932 49.6828 28.8996 49.6663C28.9587 49.6568 29.0155 49.6473 29.0746 49.6355C29.1763 49.6166 29.2781 49.5976 29.3821 49.581C29.4389 49.5692 29.498 49.5597 29.5548 49.5479C29.6612 49.5266 29.7677 49.5053 29.8741 49.484C29.9238 49.4745 29.9758 49.4627 30.0255 49.4532C30.1556 49.4248 30.2857 49.3964 30.4158 49.368C30.4394 49.3633 30.4655 49.3562 30.4915 49.3514C30.6476 49.3159 30.8037 49.2781 30.9598 49.2378C30.9906 49.2284 31.0213 49.2213 31.0521 49.2142C31.1751 49.1834 31.298 49.1503 31.421 49.1171C31.4707 49.1029 31.518 49.0887 31.5677 49.0769C31.6718 49.0485 31.7782 49.0177 31.8823 48.9869C31.9343 48.9727 31.9864 48.9562 32.0384 48.9396C32.1425 48.9088 32.2442 48.8757 32.3459 48.8449C32.3956 48.8307 32.4452 48.8141 32.4949 48.7976C32.6061 48.7621 32.7173 48.7242 32.8261 48.6887C32.8639 48.6745 32.9041 48.6627 32.942 48.6485C33.2447 48.5443 33.5428 48.4354 33.8384 48.3194C33.8692 48.3076 33.8999 48.2958 33.9307 48.2839C34.0466 48.239 34.1625 48.1916 34.276 48.1443C34.3186 48.1254 34.3612 48.1088 34.4061 48.0899C34.5102 48.0472 34.6119 48.0046 34.716 47.9597C34.7609 47.9384 34.8058 47.9194 34.8508 47.9005C34.9549 47.8555 35.0566 47.8082 35.1606 47.7608C35.2009 47.7419 35.2411 47.7253 35.2813 47.7064C35.3995 47.652 35.5154 47.5975 35.6313 47.5407C35.655 47.5289 35.681 47.517 35.7047 47.5052C35.9909 47.3656 36.2747 47.2212 36.5538 47.0721C36.5846 47.0555 36.6153 47.0389 36.6437 47.0223C36.7502 46.9655 36.859 46.904 36.9654 46.8448C37.0056 46.8235 37.0435 46.8022 37.0813 46.7785C37.1806 46.7217 37.28 46.6649 37.377 46.6081C37.4148 46.5845 37.455 46.5632 37.4952 46.5395C37.5969 46.4803 37.6963 46.4188 37.798 46.3572C37.8311 46.3383 37.8642 46.317 37.8973 46.2981C38.0203 46.2223 38.141 46.1466 38.2616 46.0685C38.2711 46.0614 38.2805 46.0566 38.29 46.0495C38.4272 45.9619 38.562 45.872 38.6968 45.7821C38.7039 45.7797 38.7086 45.7749 38.7157 45.7702C38.8387 45.6874 38.9594 45.6045 39.08 45.5217C39.1108 45.5004 39.1415 45.4767 39.1746 45.4554C39.2716 45.3868 39.3662 45.3181 39.4608 45.2495C39.4987 45.2234 39.5342 45.195 39.572 45.169C39.6642 45.1027 39.7541 45.0365 39.844 44.9678C39.8653 44.9512 39.8866 44.937 39.9079 44.9205C42.8504 42.686 45.2843 39.8149 47.0015 36.5106L46.9991 36.5272Z" fill="url(#paint2_linear_353_13263)"/>
<path opacity="0.6" d="M46.7793 36.7378C44.7995 38.016 42.4413 38.7592 39.9104 38.7592C33.4577 38.7592 28.131 33.9424 27.322 27.7055C27.2534 27.1658 27.2156 26.6143 27.2156 26.0557C27.2156 22.6993 28.5165 19.6459 30.643 17.376C30.2314 17.4091 29.8293 17.4423 29.4485 17.4754C25.1223 20.3844 22.2744 25.3266 22.2744 30.9364C22.2744 39.2681 28.5615 46.1324 36.6462 47.0366C36.7526 46.9797 36.8614 46.9182 36.9679 46.859C37.0081 46.8377 37.0459 46.8164 37.0838 46.7928C37.1831 46.7359 37.2825 46.6791 37.3795 46.6223C37.4173 46.5987 37.4575 46.5774 37.4977 46.5537C37.5994 46.4945 37.6988 46.433 37.8005 46.3714C37.8336 46.3525 37.8667 46.3312 37.8998 46.3123C38.0228 46.2365 38.1435 46.1608 38.2641 46.0827C38.2735 46.0756 38.283 46.0708 38.2925 46.0637C38.4297 45.9761 38.5645 45.8862 38.6993 45.7963C38.7064 45.7939 38.7111 45.7892 38.7182 45.7844C38.8412 45.7016 38.9619 45.6187 39.0825 45.5359C39.1132 45.5146 39.144 45.4909 39.1771 45.4696C39.2741 45.401 39.3687 45.3323 39.4633 45.2637C39.5012 45.2376 39.5366 45.2092 39.5745 45.1832C39.6667 45.1169 39.7566 45.0507 39.8465 44.982C39.8678 44.9654 39.8891 44.9512 39.9104 44.9347C42.8528 42.7002 45.2868 39.8291 47.004 36.5248C46.8976 36.6526 46.8242 36.7047 46.784 36.7355L46.7793 36.7378Z" fill="url(#paint3_linear_353_13263)"/>
<path style="mix-blend-mode:multiply" opacity="0.5" d="M15.0199 42.7949C15.0199 33.1282 19.0457 24.4011 25.5125 18.2044C23.4404 18.9382 21.5718 20.1453 19.9327 21.6862C16.3232 25.0805 13.8135 30.1032 12.6309 35.2963C11.7226 39.2847 12.5481 45.1004 14.0524 47.5738C14.2322 47.6614 14.4167 47.7466 14.5988 47.8295C14.6225 47.8389 14.6438 47.8484 14.6674 47.8602C14.7549 47.8981 14.8401 47.936 14.9276 47.9739C14.9536 47.9857 14.9796 47.9952 15.0033 48.007C15.0979 48.0472 15.1902 48.0851 15.2848 48.1253C15.3013 48.1325 15.3155 48.1395 15.3297 48.1443C15.3676 48.1609 15.4054 48.1751 15.4432 48.1916C15.1641 46.433 15.0175 44.6317 15.0175 42.7949H15.0199Z" fill="url(#paint4_linear_353_13263)"/>
<path d="M43.1083 17.5204C45.353 18.1239 46.5617 19.2057 46.6918 20.1122C48.0306 18.4269 48.4161 15.3167 46.4316 12.9403C43.4631 9.3827 34.2572 9.53656 34.2572 9.53656C34.2572 9.53656 31.6104 10.3532 28.5567 13.2551C24.8503 16.7795 21.8226 20.285 21.8226 20.285C25.2169 17.4233 40.2959 16.7629 43.1083 17.5204Z" fill="#FDBB11"/>
<path style="mix-blend-mode:screen" opacity="0.5" d="M45.6108 14.4054C46.9283 15.9771 47.3185 17.8352 47.1104 19.485C48.0896 17.7287 48.1913 15.0469 46.4339 12.9403C43.4654 9.3827 34.2595 9.53656 34.2595 9.53656C34.2595 9.53656 33.3891 9.80639 32.0692 10.5828C33.5783 10.5828 42.5429 10.7485 45.6108 14.4054Z" fill="url(#paint5_linear_353_13263)"/>
<path style="mix-blend-mode:multiply" opacity="0.3" d="M43.1083 17.5204C45.353 18.1239 46.5617 19.2057 46.6918 20.1122C48.0306 18.4269 48.4161 15.3167 46.4316 12.9403C43.4631 9.3827 34.2572 9.53656 34.2572 9.53656C34.2572 9.53656 31.6104 10.3532 28.5567 13.2551C24.8503 16.7795 21.8226 20.285 21.8226 20.285C25.2169 17.4233 40.2959 16.7629 43.1083 17.5204Z" fill="url(#paint6_linear_353_13263)"/>
<g style="mix-blend-mode:multiply" opacity="0.1">
<path d="M43.7659 16.6848C39.8701 15.5297 29.7962 15.8635 24.0295 17.5843C23.2489 18.4411 21.8226 20.2874 21.8226 20.2874C25.2169 17.4257 40.2959 16.7653 43.1083 17.5227C45.353 18.1263 46.5617 19.208 46.6918 20.1146C46.9047 19.8447 46.7012 17.5559 43.7659 16.6872V16.6848Z" fill="#EE4036"/>
</g>
<path d="M24.4836 18.2162C24.5617 18.1405 24.6398 18.0671 24.7202 17.9937C24.7273 17.9866 24.7344 17.9795 24.7438 17.9724C24.8172 17.9038 24.8905 17.8352 24.9662 17.7665C24.9756 17.7594 24.9851 17.7499 24.9922 17.7428C25.0679 17.6718 25.1459 17.6032 25.2216 17.5346C25.2264 17.5298 25.2311 17.5251 25.2358 17.5203C25.5717 17.2197 25.9099 16.9262 26.2576 16.6398C26.2647 16.6327 26.2718 16.628 26.2766 16.6233C26.3546 16.5594 26.4327 16.4954 26.5107 16.4315C26.5226 16.4221 26.5344 16.4126 26.5486 16.4008C26.6243 16.3416 26.6976 16.2801 26.7709 16.2209C26.7851 16.2114 26.7969 16.1996 26.8111 16.1901C26.8892 16.1286 26.9649 16.0694 27.0429 16.0078C27.0524 16.0007 27.0619 15.9936 27.0713 15.9865C27.3362 15.7783 27.6035 15.5771 27.8755 15.3782C27.8826 15.3735 27.8874 15.3688 27.8945 15.364C27.9749 15.3049 28.0577 15.2457 28.1381 15.1865C28.1546 15.1747 28.1712 15.1605 28.1901 15.1486C28.2611 15.0966 28.332 15.0469 28.403 14.9972C28.4243 14.983 28.4456 14.9664 28.4669 14.9522C28.5355 14.9048 28.6041 14.8575 28.675 14.8078C28.6963 14.7936 28.7176 14.7794 28.7389 14.7628C28.8122 14.7131 28.8855 14.6634 28.9589 14.6137C28.9754 14.6019 28.9943 14.59 29.0109 14.5782C29.1008 14.5167 29.1907 14.4575 29.2805 14.3983C29.465 14.2776 29.6519 14.1569 29.8388 14.0385C29.86 14.0243 29.8837 14.0101 29.905 13.9959C29.9736 13.9533 30.0422 13.9083 30.1131 13.8657C30.1415 13.8492 30.1699 13.8302 30.2007 13.8137C30.2645 13.7758 30.3284 13.7356 30.3923 13.6977C30.423 13.6787 30.4537 13.6598 30.4845 13.6409C30.546 13.603 30.6099 13.5651 30.6737 13.5273C30.7045 13.5083 30.7352 13.4918 30.766 13.4728C30.8322 13.4349 30.9008 13.3947 30.967 13.3568C30.993 13.3426 31.0191 13.3261 31.0474 13.3119C31.1326 13.2622 31.2201 13.2125 31.3053 13.1651C31.3124 13.1604 31.3195 13.1556 31.3289 13.1533C31.4235 13.1012 31.5205 13.0468 31.6151 12.9947C31.6388 12.9829 31.6601 12.9687 31.6837 12.9568C31.7547 12.9189 31.8256 12.8811 31.899 12.8408C31.9321 12.8219 31.9652 12.8053 32.0007 12.7864C32.0622 12.7533 32.1237 12.7201 32.1852 12.6894C32.223 12.668 32.2585 12.6515 32.2963 12.6302C32.3555 12.5994 32.4146 12.5686 32.4737 12.5379C32.5116 12.5189 32.5494 12.4976 32.5873 12.4787C32.6464 12.4479 32.7079 12.4171 32.7694 12.3864C32.8049 12.3674 32.8427 12.3509 32.8782 12.3319C32.9444 12.2988 33.0107 12.268 33.0745 12.2349C33.1053 12.2207 33.1384 12.2041 33.1692 12.1876C33.2661 12.1402 33.3631 12.0929 33.4601 12.0479C30.8062 10.9402 27.9228 10.2632 24.8857 10.1093C16.1884 9.66909 8.28345 13.6196 3.32097 20.0175C2.00112 21.7194 -1.30326 27.2605 2.18325 35.5709C2.25894 34.4442 2.76512 32.5506 3.66868 31.1305C4.26001 30.2026 4.91048 29.4949 5.4616 28.9836C5.06186 30.3659 4.84898 31.824 4.84898 33.3341C4.84898 39.7415 8.69975 45.2471 14.2086 47.6638C14.2063 47.6614 14.2039 47.6567 14.2015 47.6543C14.2015 47.652 14.2015 47.6496 14.1992 47.6472C14.1992 47.6472 14.1992 47.6472 14.1992 47.6496C13.9863 46.111 13.8775 44.5417 13.8775 42.9464C13.8775 33.211 17.9482 24.4272 24.4789 18.2068L24.4836 18.2162Z" fill="#98D9F3"/>
<path style="mix-blend-mode:multiply" opacity="0.3" d="M24.4836 18.2162C24.5617 18.1405 24.6398 18.0671 24.7202 17.9937C24.7273 17.9866 24.7344 17.9795 24.7438 17.9724C24.8172 17.9038 24.8905 17.8352 24.9662 17.7665C24.9756 17.7594 24.9851 17.7499 24.9922 17.7428C25.0679 17.6718 25.1459 17.6032 25.2216 17.5346C25.2264 17.5298 25.2311 17.5251 25.2358 17.5203C25.5717 17.2197 25.9099 16.9262 26.2576 16.6398C26.2647 16.6327 26.2718 16.628 26.2766 16.6233C26.3546 16.5594 26.4327 16.4954 26.5107 16.4315C26.5226 16.4221 26.5344 16.4126 26.5486 16.4008C26.6243 16.3416 26.6976 16.2801 26.7709 16.2209C26.7851 16.2114 26.7969 16.1996 26.8111 16.1901C26.8892 16.1286 26.9649 16.0694 27.0429 16.0078C27.0524 16.0007 27.0619 15.9936 27.0713 15.9865C27.3362 15.7783 27.6035 15.5771 27.8755 15.3782C27.8826 15.3735 27.8874 15.3688 27.8945 15.364C27.9749 15.3049 28.0577 15.2457 28.1381 15.1865C28.1546 15.1747 28.1712 15.1605 28.1901 15.1486C28.2611 15.0966 28.332 15.0469 28.403 14.9972C28.4243 14.983 28.4456 14.9664 28.4669 14.9522C28.5355 14.9048 28.6041 14.8575 28.675 14.8078C28.6963 14.7936 28.7176 14.7794 28.7389 14.7628C28.8122 14.7131 28.8855 14.6634 28.9589 14.6137C28.9754 14.6019 28.9943 14.59 29.0109 14.5782C29.1008 14.5167 29.1907 14.4575 29.2805 14.3983C29.465 14.2776 29.6519 14.1569 29.8388 14.0385C29.86 14.0243 29.8837 14.0101 29.905 13.9959C29.9736 13.9533 30.0422 13.9083 30.1131 13.8657C30.1415 13.8492 30.1699 13.8302 30.2007 13.8137C30.2645 13.7758 30.3284 13.7356 30.3923 13.6977C30.423 13.6787 30.4537 13.6598 30.4845 13.6409C30.546 13.603 30.6099 13.5651 30.6737 13.5273C30.7045 13.5083 30.7352 13.4918 30.766 13.4728C30.8322 13.4349 30.9008 13.3947 30.967 13.3568C30.993 13.3426 31.0191 13.3261 31.0474 13.3119C31.1326 13.2622 31.2201 13.2125 31.3053 13.1651C31.3124 13.1604 31.3195 13.1556 31.3289 13.1533C31.4235 13.1012 31.5205 13.0468 31.6151 12.9947C31.6388 12.9829 31.6601 12.9687 31.6837 12.9568C31.7547 12.9189 31.8256 12.8811 31.899 12.8408C31.9321 12.8219 31.9652 12.8053 32.0007 12.7864C32.0622 12.7533 32.1237 12.7201 32.1852 12.6894C32.223 12.668 32.2585 12.6515 32.2963 12.6302C32.3555 12.5994 32.4146 12.5686 32.4737 12.5379C32.5116 12.5189 32.5494 12.4976 32.5873 12.4787C32.6464 12.4479 32.7079 12.4171 32.7694 12.3864C32.8049 12.3674 32.8427 12.3509 32.8782 12.3319C32.9444 12.2988 33.0107 12.268 33.0745 12.2349C33.1053 12.2207 33.1384 12.2041 33.1692 12.1876C33.2661 12.1402 33.3631 12.0929 33.4601 12.0479C30.8062 10.9402 27.9228 10.2632 24.8857 10.1093C16.1884 9.66909 8.28345 13.6196 3.32097 20.0175C2.00112 21.7194 -1.30326 27.2605 2.18325 35.5709C2.25894 34.4442 2.76512 32.5506 3.66868 31.1305C4.26001 30.2026 4.91048 29.4949 5.4616 28.9836C5.06186 30.3659 4.84898 31.824 4.84898 33.3341C4.84898 39.7415 8.69975 45.2471 14.2086 47.6638C14.2063 47.6614 14.2039 47.6567 14.2015 47.6543C14.2015 47.652 14.2015 47.6496 14.1992 47.6472C14.1992 47.6472 14.1992 47.6472 14.1992 47.6496C13.9863 46.111 13.8775 44.5417 13.8775 42.9464C13.8775 33.211 17.9482 24.4272 24.4789 18.2068L24.4836 18.2162Z" fill="url(#paint7_linear_353_13263)"/>
<path opacity="0.2" d="M10.2419 34.4561C10.2419 39.3273 11.6847 43.8601 14.1683 47.652C14.1825 47.6591 14.1991 47.6662 14.2133 47.6709C14.2109 47.6685 14.2085 47.6638 14.2062 47.6614C14.2062 47.6591 14.2062 47.6567 14.2038 47.6543C14.2038 47.6543 14.2038 47.6543 14.2038 47.6567C13.9909 46.1182 13.8821 44.5489 13.8821 42.9535C13.8821 33.2182 17.9529 24.4343 24.4836 18.2139C24.5616 18.1381 24.6397 18.0648 24.7201 17.9914C24.7272 17.9843 24.7343 17.9772 24.7437 17.9701C24.8171 17.9015 24.8904 17.8328 24.9661 17.7642C24.9755 17.7571 24.985 17.7476 24.9921 17.7405C25.0678 17.6695 25.1458 17.6008 25.2215 17.5322C25.2263 17.5275 25.231 17.5227 25.2357 17.518C25.5716 17.2174 25.9099 16.9239 26.2576 16.6375C26.2647 16.6304 26.2717 16.6257 26.2765 16.6209C26.3545 16.557 26.4326 16.4931 26.5106 16.4292C26.5225 16.4197 26.5343 16.4103 26.5485 16.3984C26.6242 16.3392 26.6975 16.2777 26.7708 16.2185C26.785 16.2091 26.7969 16.1972 26.811 16.1878C26.8891 16.1262 26.9648 16.067 27.0428 16.0055C27.0523 15.9984 27.0618 15.9913 27.0712 15.9842C27.3361 15.7759 27.6034 15.5747 27.8754 15.3759C27.8825 15.3712 27.8873 15.3664 27.8944 15.3617C27.9748 15.3025 28.0576 15.2433 28.138 15.1842C28.1546 15.1723 28.1711 15.1581 28.19 15.1463C28.261 15.0942 28.332 15.0445 28.4029 14.9948C28.4242 14.9806 28.4455 14.964 28.4668 14.9498C28.5354 14.9025 28.604 14.8552 28.6749 14.8054C28.6962 14.7912 28.7175 14.777 28.7388 14.7605C28.8121 14.7108 28.8854 14.6611 28.9588 14.6114C28.9753 14.5995 28.9943 14.5877 29.0108 14.5759C29.1007 14.5143 29.1906 14.4551 29.2805 14.396C29.465 14.2752 29.6518 14.1545 29.8387 14.0362C29.86 14.022 29.8836 14.0078 29.9049 13.9936C29.9735 13.951 30.0421 13.906 30.1131 13.8634C30.1414 13.8468 30.1698 13.8279 30.2006 13.8113C30.2644 13.7734 30.3283 13.7332 30.3922 13.6953C30.4229 13.6764 30.4537 13.6575 30.4844 13.6385C30.5459 13.6007 30.6098 13.5628 30.6736 13.5249C30.7044 13.506 30.7351 13.4894 30.7659 13.4705C30.8321 13.4326 30.9007 13.3924 30.9669 13.3545C30.993 13.3403 31.019 13.3237 31.0474 13.3095C31.1325 13.2598 31.22 13.2101 31.3052 13.1628C31.3123 13.158 31.3194 13.1533 31.3288 13.1509C31.4235 13.0989 31.5204 13.0444 31.615 12.9923C31.6387 12.9805 31.66 12.9663 31.6836 12.9545C31.7546 12.9166 31.8256 12.8787 31.8989 12.8385C31.932 12.8196 31.9651 12.803 32.0006 12.784C32.0621 12.7509 32.1236 12.7178 32.1851 12.687C32.2229 12.6657 32.2584 12.6491 32.2963 12.6278C32.3554 12.5971 32.4145 12.5663 32.4737 12.5355C32.5115 12.5166 32.5494 12.4953 32.5872 12.4763C32.6463 12.4456 32.7078 12.4148 32.7693 12.384C32.8048 12.3651 32.8427 12.3485 32.8781 12.3296C32.9444 12.2965 33.0106 12.2657 33.0745 12.2325C33.1052 12.2183 33.1383 12.2018 33.1691 12.1852C33.266 12.1379 33.363 12.0905 33.46 12.0456C32.2371 11.5367 30.9622 11.1153 29.6494 10.7982C18.5844 12.9781 10.2395 22.7395 10.2395 34.449L10.2419 34.4561Z" fill="url(#paint8_linear_353_13263)"/>
<path opacity="0.5" d="M24.0153 13.9841C12.0845 13.9841 2.38189 23.5325 2.1217 35.41C2.14536 35.4644 2.16665 35.5189 2.18793 35.5733C2.26362 34.4466 2.76981 32.553 3.67336 31.1329C4.2647 30.205 4.91517 29.4973 5.46629 28.986C5.06655 30.3683 4.85367 31.8264 4.85367 33.3365C4.85367 39.7439 8.70443 45.2495 14.2133 47.6662C14.2109 47.6638 14.2086 47.6591 14.2062 47.6567C14.2062 47.6544 14.2062 47.652 14.2038 47.6496C14.2038 47.6496 14.2038 47.6496 14.2038 47.652C13.991 46.1135 13.8822 44.5441 13.8822 42.9488C13.8822 33.2134 17.9529 24.4296 24.4836 18.2092C24.5616 18.1334 24.6397 18.0601 24.7201 17.9867C24.7272 17.9796 24.7343 17.9725 24.7438 17.9654C24.8171 17.8967 24.8904 17.8281 24.9661 17.7595C24.9756 17.7524 24.985 17.7429 24.9921 17.7358C25.0678 17.6648 25.1459 17.5961 25.2216 17.5275C25.2263 17.5228 25.231 17.518 25.2358 17.5133C25.5716 17.2127 25.9099 16.9192 26.2576 16.6328C26.2647 16.6257 26.2718 16.6209 26.2765 16.6162C26.3546 16.5523 26.4326 16.4884 26.5107 16.4245C26.5225 16.415 26.5343 16.4055 26.5485 16.3937C26.6242 16.3345 26.6975 16.273 26.7709 16.2138C26.7851 16.2043 26.7969 16.1925 26.8111 16.183C26.8891 16.1215 26.9648 16.0623 27.0429 16.0008C27.0523 15.9937 27.0618 15.9866 27.0713 15.9795C27.3362 15.7712 27.6035 15.57 27.8755 15.3712C27.8826 15.3664 27.8873 15.3617 27.8944 15.357C27.9748 15.2978 28.0576 15.2386 28.138 15.1794C28.1546 15.1676 28.1712 15.1534 28.1901 15.1416C28.261 15.0895 28.332 15.0398 28.403 14.9901C28.4242 14.9759 28.4455 14.9593 28.4668 14.9451C28.5354 14.8978 28.604 14.8504 28.675 14.8007C28.6963 14.7865 28.7175 14.7723 28.7388 14.7558C28.8122 14.7061 28.8855 14.6563 28.9588 14.6066C28.9754 14.5948 28.9943 14.583 29.0108 14.5711C29.0203 14.564 29.0298 14.5593 29.0392 14.5522C27.4261 14.1735 25.7467 13.9723 24.0176 13.9723L24.0153 13.9841Z" fill="url(#paint9_linear_353_13263)"/>
<path style="mix-blend-mode:multiply" opacity="0.3" d="M5.2676 18.5808C11.7652 13.2267 20.6754 11.0301 29.3822 13.4752C30.0374 13.6598 30.6808 13.8658 31.3099 14.0954C32.4169 13.5368 33.5594 13.0468 34.7373 12.6255C31.7452 11.1792 28.4171 10.294 24.8881 10.1141C16.1907 9.67385 8.28577 13.6243 3.32329 20.0223C2.68702 20.8412 1.59187 22.5502 1.01709 25.0284C2.16428 21.5158 4.23158 19.4329 5.26523 18.5831L5.2676 18.5808Z" fill="url(#paint10_linear_353_13263)"/>
<path d="M33.4719 1.75866C30.4915 0.482863 27.147 0 23.7149 0C17.9931 0 12.6735 1.72789 8.24793 4.69135L9.90366 4.94225C4.52016 8.95664 0.81131 15.0871 0 22.1028C0 22.1028 0.752177 21.1726 1.90173 20.6708C2.27072 20.5098 2.68466 20.4483 3.00634 20.4341C3.28545 20.4223 3.38007 20.285 3.42974 20.2234C8.36619 13.8586 16.2096 9.91763 24.8526 10.3082C24.8999 10.3082 24.9164 10.2798 24.9472 10.2537C26.241 9.18623 27.8991 8.54478 29.7086 8.54478C31.5181 8.54478 33.0579 9.14363 34.3305 10.1425C34.347 10.1567 34.3873 10.1875 34.4511 10.1709C43.3826 8.9235 37.4835 3.47235 33.4766 1.7563L33.4719 1.75866Z" fill="#BAE4F1"/>
<path opacity="0.6" d="M20.718 1.6001C16.2333 1.6001 12.0112 2.72204 8.31416 4.70084L9.9013 4.94227C4.52016 8.95666 0.81131 15.0871 0 22.1028C0 22.1028 0.752177 21.1726 1.90173 20.6708C2.27072 20.5099 2.68466 20.4483 3.00634 20.4341C3.28545 20.4223 3.38007 20.285 3.42974 20.2235C8.36619 13.8587 16.2097 9.91765 24.8526 10.3082C24.8999 10.3082 24.9165 10.2798 24.9472 10.2538C26.241 9.18625 27.8991 8.5448 29.7086 8.5448C31.5181 8.5448 33.0579 9.14365 34.3305 10.1425C34.347 10.1567 34.3873 10.1875 34.4511 10.1709C36.6509 9.86321 37.9518 9.29987 38.6023 8.60161C33.9024 4.25821 27.62 1.6001 20.718 1.6001Z" fill="url(#paint11_linear_353_13263)"/>
<path d="M25.1648 6.45239C14.1447 6.45239 4.60531 12.8054 0.00709601 22.0531C0.00709601 22.0697 0.00236534 22.0863 0 22.1052C0 22.1052 0.752177 21.175 1.90173 20.6732C2.27072 20.5122 2.68466 20.4507 3.00634 20.4365C3.28545 20.4246 3.38007 20.2874 3.42974 20.2258C8.36619 13.861 16.2096 9.92001 24.8526 10.3106C24.8999 10.3106 24.9165 10.2822 24.9472 10.2561C26.241 9.18862 27.8991 8.54717 29.7086 8.54717C31.5181 8.54717 33.0579 9.14601 34.3305 10.1449C34.347 10.1591 34.3873 10.1898 34.4511 10.1733C35.8183 9.98155 36.8377 9.69278 37.571 9.333C33.8314 7.48913 29.6211 6.45239 25.1695 6.45239H25.1648Z" fill="url(#paint12_linear_353_13263)"/>
<defs>
<linearGradient id="paint0_linear_353_13263" x1="47.2712" y1="32.9365" x2="27.9504" y2="29.6224" gradientUnits="userSpaceOnUse">
<stop offset="0.16" stop-color="#72C3ED" stop-opacity="0"/>
<stop offset="1" stop-color="#142E54"/>
</linearGradient>
<linearGradient id="paint1_linear_353_13263" x1="31.1704" y1="28.2262" x2="49.4056" y2="25.0114" gradientUnits="userSpaceOnUse">
<stop stop-color="#FAFBFB" stop-opacity="0"/>
<stop offset="0.26" stop-color="#CBE3EB" stop-opacity="0.3"/>
<stop offset="0.61" stop-color="#90C5D8" stop-opacity="0.67"/>
<stop offset="0.87" stop-color="#6CB3CC" stop-opacity="0.91"/>
<stop offset="0.99" stop-color="#5EACC8"/>
</linearGradient>
<linearGradient id="paint2_linear_353_13263" x1="24.9045" y1="33.6726" x2="10.1696" y2="26.7949" gradientUnits="userSpaceOnUse">
<stop stop-color="#72C3ED" stop-opacity="0"/>
<stop offset="1" stop-color="#1E3958"/>
</linearGradient>
<linearGradient id="paint3_linear_353_13263" x1="31.5796" y1="17.099" x2="36.8543" y2="46.9998" gradientUnits="userSpaceOnUse">
<stop stop-color="#72C3ED" stop-opacity="0"/>
<stop offset="1" stop-color="#4490CD"/>
</linearGradient>
<linearGradient id="paint4_linear_353_13263" x1="11.6658" y1="29.7931" x2="35.0703" y2="38.8217" gradientUnits="userSpaceOnUse">
<stop stop-color="#FAFBFB" stop-opacity="0"/>
<stop offset="0.11" stop-color="#D7E6F2" stop-opacity="0.19"/>
<stop offset="0.27" stop-color="#AACCE6" stop-opacity="0.43"/>
<stop offset="0.43" stop-color="#85B6DD" stop-opacity="0.64"/>
<stop offset="0.59" stop-color="#69A5D6" stop-opacity="0.8"/>
<stop offset="0.74" stop-color="#5499D1" stop-opacity="0.91"/>
<stop offset="0.88" stop-color="#4892CE" stop-opacity="0.98"/>
<stop offset="1" stop-color="#4490CD"/>
</linearGradient>
<linearGradient id="paint5_linear_353_13263" x1="33.0012" y1="15.8659" x2="47.3073" y2="13.346" gradientUnits="userSpaceOnUse">
<stop stop-color="white" stop-opacity="0"/>
<stop offset="0.09" stop-color="white" stop-opacity="0.05"/>
<stop offset="0.25" stop-color="white" stop-opacity="0.17"/>
<stop offset="0.46" stop-color="white" stop-opacity="0.38"/>
<stop offset="0.72" stop-color="white" stop-opacity="0.66"/>
<stop offset="1" stop-color="white"/>
</linearGradient>
<linearGradient id="paint6_linear_353_13263" x1="42.1645" y1="24.6426" x2="29.6432" y2="12.1276" gradientUnits="userSpaceOnUse">
<stop offset="0.18" stop-color="white" stop-opacity="0"/>
<stop offset="1" stop-color="#F6921E"/>
</linearGradient>
<linearGradient id="paint7_linear_353_13263" x1="16.477" y1="18.7228" x2="14.5491" y2="10.5005" gradientUnits="userSpaceOnUse">
<stop stop-color="#72C3ED" stop-opacity="0"/>
<stop offset="1" stop-color="#3C90CE"/>
</linearGradient>
<linearGradient id="paint8_linear_353_13263" x1="20.8267" y1="16.131" x2="25.0428" y2="48.6241" gradientUnits="userSpaceOnUse">
<stop stop-color="#72C3ED" stop-opacity="0"/>
<stop offset="0.03" stop-color="#6DBDE9" stop-opacity="0.1"/>
<stop offset="0.11" stop-color="#63B3E3" stop-opacity="0.31"/>
<stop offset="0.19" stop-color="#5BA9DD" stop-opacity="0.5"/>
<stop offset="0.28" stop-color="#53A1D8" stop-opacity="0.65"/>
<stop offset="0.38" stop-color="#4E9BD4" stop-opacity="0.78"/>
<stop offset="0.49" stop-color="#4996D0" stop-opacity="0.88"/>
<stop offset="0.6" stop-color="#4692CE" stop-opacity="0.95"/>
<stop offset="0.75" stop-color="#4490CD" stop-opacity="0.99"/>
<stop offset="1" stop-color="#4490CD"/>
</linearGradient>
<linearGradient id="paint9_linear_353_13263" x1="15.3014" y1="24.716" x2="6.79322" y2="41.9973" gradientUnits="userSpaceOnUse">
<stop offset="0.03" stop-color="#72C3ED" stop-opacity="0"/>
<stop offset="0.85" stop-color="#4B98D2" stop-opacity="0.84"/>
<stop offset="1" stop-color="#4490CD"/>
</linearGradient>
<linearGradient id="paint10_linear_353_13263" x1="23.211" y1="24.1621" x2="11.0495" y2="12.009" gradientUnits="userSpaceOnUse">
<stop stop-color="#FAFBFB" stop-opacity="0"/>
<stop offset="1" stop-color="#4490CD"/>
</linearGradient>
<linearGradient id="paint11_linear_353_13263" x1="38.5976" y1="11.8515" x2="0" y2="11.8515" gradientUnits="userSpaceOnUse">
<stop stop-color="#BAE4F3" stop-opacity="0"/>
<stop offset="0.13" stop-color="#B0DFF2" stop-opacity="0.14"/>
<stop offset="0.74" stop-color="#83CBEE" stop-opacity="0.75"/>
<stop offset="1" stop-color="#72C3ED"/>
</linearGradient>
<linearGradient id="paint12_linear_353_13263" x1="37.5686" y1="14.2776" x2="0" y2="14.2776" gradientUnits="userSpaceOnUse">
<stop offset="0.01" stop-color="#BAE4F3" stop-opacity="0"/>
<stop offset="0.73" stop-color="#85CBEE" stop-opacity="0.73"/>
<stop offset="1" stop-color="#72C3ED"/>
</linearGradient>
</defs>
</svg>
